<svg width="44" height="44" viewBox="0 0 44 44" fill="none" xmlns="http://www.w3.org/2000/svg">
<rect width="44" height="44" rx="7.94444" fill="#212121"/>
<g clip-path="url(#clip0_2115_51010)">
<path d="M17.3159 36.3611C19.9578 36.3611 22.1019 34.2165 22.1019 31.5741V26.787H17.3159C14.6739 26.787 12.5298 28.9316 12.5298 31.5741C12.5298 34.2165 14.6739 36.3611 17.3159 36.3611Z" fill="#0ACF83"/>
<path d="M12.5298 22C12.5298 19.3575 14.6739 17.213 17.3159 17.213H22.1019V26.787H17.3159C14.6739 26.787 12.5298 24.6424 12.5298 22Z" fill="#A259FF"/>
<path d="M12.5298 12.426C12.5298 9.78351 14.6739 7.63892 17.3159 7.63892H22.1019V17.213H17.3159C14.6739 17.213 12.5298 15.0684 12.5298 12.426Z" fill="#F24E1E"/>
<path d="M22.1021 7.63892H26.8881C29.53 7.63892 31.6742 9.78351 31.6742 12.426C31.6742 15.0684 29.53 17.213 26.8881 17.213H22.1021V7.63892Z" fill="#FF7262"/>
<path d="M31.6742 22C31.6742 24.6424 29.53 26.787 26.8881 26.787C24.2462 26.787 22.1021 24.6424 22.1021 22C22.1021 19.3575 24.2462 17.213 26.8881 17.213C29.53 17.213 31.6742 19.3575 31.6742 22Z" fill="#1ABCFE"/>
</g>
<defs>
<clipPath id="clip0_2115_51010">
<rect width="19.1481" height="28.7222" fill="white" transform="translate(12.5278 7.63892)"/>
</clipPath>
</defs>
</svg>
