<svg width="44" height="44" viewBox="0 0 44 44" fill="none" xmlns="http://www.w3.org/2000/svg">
<g clip-path="url(#clip0_2115_51057)">
<path d="M7.79167 0H36.2083C40.5167 0 44 3.57265 44 7.99145V36.0085C44 40.4274 40.5167 44 36.2083 44H7.79167C3.48333 44 0 40.4274 0 36.0085V7.99145C0 3.57265 3.48333 0 7.79167 0Z" fill="#001E36"/>
<path d="M9.8999 30.8564V11.5077C9.8999 11.3761 9.9549 11.3009 10.0832 11.3009C10.3949 11.3009 10.6882 11.3009 11.1099 11.2821C11.5499 11.2633 12.0082 11.2633 12.5032 11.2445C12.9982 11.2257 13.5299 11.2257 14.0982 11.2069C14.6666 11.188 15.2166 11.188 15.7666 11.188C17.2699 11.188 18.5166 11.3761 19.5432 11.771C20.4599 12.0906 21.3032 12.6171 21.9999 13.3128C22.5866 13.9145 23.0449 14.6479 23.3382 15.4564C23.6132 16.2462 23.7599 17.0547 23.7599 17.9009C23.7599 19.518 23.3932 20.853 22.6599 21.906C21.9266 22.959 20.8999 23.7487 19.7082 24.2C18.4616 24.6701 17.0866 24.8393 15.5832 24.8393C15.1432 24.8393 14.8499 24.8393 14.6666 24.8205C14.4832 24.8017 14.2266 24.8017 13.8782 24.8017V30.8376C13.8966 30.9692 13.8049 31.0821 13.6766 31.1009C13.6582 31.1009 13.6399 31.1009 13.6032 31.1009H10.1199C9.97324 31.1009 9.8999 31.0257 9.8999 30.8564ZM13.8966 14.9299V21.2479C14.1532 21.2667 14.3916 21.2855 14.6116 21.2855H15.5832C16.2982 21.2855 17.0132 21.1727 17.6916 20.947C18.2782 20.7778 18.7916 20.4205 19.1949 19.9504C19.5799 19.4804 19.7632 18.841 19.7632 18.0137C19.7816 17.4308 19.6349 16.8479 19.3416 16.3402C19.0299 15.8513 18.5899 15.4752 18.0582 15.2684C17.3799 14.9863 16.6466 14.8735 15.8949 14.8923C15.4182 14.8923 14.9966 14.8923 14.6482 14.9111C14.2816 14.8923 14.0249 14.9111 13.8966 14.9299Z" fill="#31A8FF"/>
<path d="M35.1999 20.1008C34.6499 19.8 34.0632 19.5931 33.4399 19.4615C32.7616 19.3111 32.0832 19.2171 31.3866 19.2171C31.0199 19.1983 30.6349 19.2547 30.2866 19.3487C30.0482 19.4051 29.8466 19.5367 29.7182 19.7248C29.6266 19.8752 29.5716 20.0632 29.5716 20.2325C29.5716 20.4017 29.6449 20.5709 29.7549 20.7213C29.9199 20.9282 30.1399 21.0974 30.3782 21.229C30.7999 21.4547 31.2399 21.6615 31.6799 21.8495C32.6699 22.188 33.6232 22.6581 34.5032 23.2222C35.1082 23.6171 35.6032 24.1436 35.9516 24.7829C36.2449 25.3846 36.3916 26.0427 36.3732 26.7196C36.3916 27.6034 36.1349 28.4872 35.6582 29.2205C35.1449 29.9726 34.4299 30.5555 33.6049 30.894C32.7066 31.2889 31.6066 31.4957 30.2866 31.4957C29.4432 31.4957 28.6182 31.4205 27.7932 31.2513C27.1516 31.1384 26.5099 30.9316 25.9232 30.6495C25.7949 30.5743 25.7032 30.4427 25.7216 30.2923V27.0205C25.7216 26.9641 25.7399 26.8889 25.7949 26.8513C25.8499 26.8136 25.9049 26.8325 25.9599 26.8701C26.6749 27.3025 27.4266 27.6034 28.2332 27.7914C28.9299 27.9795 29.6632 28.0735 30.3966 28.0735C31.0932 28.0735 31.5882 27.9795 31.9182 27.8102C32.2116 27.6786 32.4132 27.3589 32.4132 27.0205C32.4132 26.7572 32.2666 26.5128 31.9732 26.2683C31.6799 26.0239 31.0749 25.7419 30.1766 25.3846C29.2416 25.0461 28.3799 24.5948 27.5732 24.0307C27.0049 23.6171 26.5282 23.0718 26.1799 22.4325C25.8866 21.8307 25.7399 21.1726 25.7582 20.5145C25.7582 19.706 25.9782 18.935 26.3816 18.2393C26.8399 17.4872 27.5182 16.8854 28.3066 16.5094C29.1682 16.0581 30.2499 15.8513 31.5516 15.8513C32.3032 15.8513 33.0732 15.9077 33.8249 16.0205C34.3749 16.0957 34.9066 16.2461 35.4016 16.453C35.4749 16.4718 35.5482 16.547 35.5849 16.6222C35.6032 16.6974 35.6216 16.7726 35.6216 16.8478V19.9128C35.6216 19.988 35.5849 20.0632 35.5299 20.1008C35.3649 20.1384 35.2732 20.1384 35.1999 20.1008Z" fill="#31A8FF"/>
</g>
<defs>
<clipPath id="clip0_2115_51057">
<rect width="44" height="44" fill="white"/>
</clipPath>
</defs>
</svg>
