<svg width="44" height="44" viewBox="0 0 44 44" fill="none" xmlns="http://www.w3.org/2000/svg">
<g clip-path="url(#clip0_2115_50973)">
<path d="M7.79167 0H36.2083C40.5167 0 44 3.57265 44 7.99145V36.0085C44 40.4274 40.5167 44 36.2083 44H7.79167C3.48333 44 0 40.4274 0 36.0085V7.99145C0 3.57265 3.48333 0 7.79167 0Z" fill="#3178C6"/>
<path fill-rule="evenodd" clip-rule="evenodd" d="M27.4746 35.0587V39.2785C28.1583 39.6299 28.9668 39.8938 29.9002 40.0695C30.8337 40.2455 31.8175 40.3333 32.8518 40.3333C33.8597 40.3333 34.8173 40.2368 35.7243 40.0433C36.6317 39.8499 37.4268 39.5312 38.1107 39.0872C38.7942 38.6431 39.3354 38.0631 39.7344 37.3464C40.133 36.6301 40.3325 35.7444 40.3325 34.6895C40.3325 33.9247 40.2184 33.2544 39.9907 32.6786C39.7626 32.1028 39.4341 31.5907 39.0045 31.1423C38.5752 30.694 38.0601 30.2918 37.4599 29.9358C36.8594 29.5798 36.1825 29.2435 35.4285 28.927C34.8764 28.6985 34.3812 28.4765 33.943 28.2611C33.5047 28.0457 33.1322 27.826 32.8255 27.6018C32.5187 27.3776 32.282 27.1402 32.1155 26.8897C31.949 26.6392 31.8657 26.3556 31.8657 26.0392C31.8657 25.7491 31.9402 25.4875 32.0892 25.2546C32.2382 25.0216 32.4486 24.8216 32.7203 24.6546C32.992 24.4876 33.325 24.3579 33.7195 24.2656C34.1139 24.1733 34.5521 24.1271 35.0342 24.1271C35.3849 24.1271 35.755 24.1535 36.1452 24.2063C36.5351 24.259 36.9274 24.3403 37.3218 24.4502C37.7162 24.5601 38.0995 24.6985 38.4723 24.8656C38.8447 25.0326 39.1886 25.226 39.5042 25.4458V21.503C38.8643 21.2569 38.1654 21.0745 37.4073 20.9558C36.6491 20.8371 35.7793 20.7778 34.7975 20.7778C33.7984 20.7778 32.8518 20.8854 31.9578 21.1008C31.0638 21.3162 30.2771 21.6525 29.5979 22.1096C28.9186 22.5667 28.3817 23.1491 27.9873 23.8568C27.5929 24.5645 27.3957 25.4106 27.3957 26.3952C27.3957 27.6523 27.7573 28.7248 28.4804 29.6127C29.2035 30.5006 30.3012 31.2522 31.7737 31.8676C32.3522 32.1049 32.8912 32.3379 33.3908 32.5665C33.8904 32.795 34.3221 33.0324 34.6858 33.2786C35.0495 33.5247 35.3365 33.7928 35.5468 34.0829C35.7574 34.373 35.8624 34.7027 35.8624 35.0719C35.8624 35.3446 35.7968 35.5973 35.6653 35.8301C35.5338 36.063 35.3344 36.2652 35.0671 36.4367C34.7997 36.6081 34.4667 36.7423 34.0679 36.8389C33.6691 36.9355 33.2024 36.9839 32.6677 36.9839C31.7562 36.9839 30.8534 36.8236 29.9594 36.5025C29.0654 36.1818 28.2371 35.7005 27.4746 35.0587ZM20.3866 24.5548H25.8914V21.0786H10.5479V24.5548H16.0258V40.0325H20.3866V24.5548Z" fill="white"/>
</g>
<defs>
<clipPath id="clip0_2115_50973">
<rect width="44" height="44" fill="white"/>
</clipPath>
</defs>
</svg>
