<svg width="44" height="44" viewBox="0 0 44 44" fill="none" xmlns="http://www.w3.org/2000/svg">
<path d="M44 20.918C44 11.0572 44 6.12676 40.9367 3.06337C37.8732 0 32.9428 0 23.082 0H20.918C11.0572 0 6.12676 0 3.06337 3.06337C2.09808e-06 6.12676 0 11.0572 0 20.918V23.082C0 32.9428 2.09808e-06 37.8732 3.06337 40.9367C6.12676 44 11.0572 44 20.918 44H23.082C32.9428 44 37.8732 44 40.9367 40.9367C44 37.8732 44 32.9428 44 23.082V20.918Z" fill="#0077FF"/>
<path d="M35.1903 0.476685C34.5226 1.74134 33.7929 3.25699 32.9404 5.02806L23.5889 24.4526C20.8609 30.1189 19.497 32.952 20.7908 35.0108C22.0845 37.0698 25.229 37.0698 31.5179 37.0698H43.1095C43.9976 33.9746 43.9976 29.608 43.9976 23.0817V20.9178C43.9976 11.0569 43.9976 6.12647 40.9343 3.0631C39.5188 1.64774 37.7049 0.886311 35.1903 0.476685Z" fill="#00D9ED"/>
<path d="M27.5517 16.2214L23.5893 24.4521C21.8432 28.079 20.6559 30.5452 20.3668 32.3904C15.82 32.3646 13.4072 32.1649 12.2589 30.6271C12.0519 30.3499 11.8783 30.0491 11.7417 29.7312C10.871 27.7046 12.3659 25.1154 15.3557 19.9369C18.3455 14.7584 19.8404 12.1691 22.0308 11.9099C22.3745 11.8692 22.7216 11.8692 23.0653 11.9099C24.6484 12.0973 25.8683 13.5018 27.5517 16.2214Z" fill="white"/>
</svg>
