<svg width="44" height="44" viewBox="0 0 44 44" fill="none" xmlns="http://www.w3.org/2000/svg">
<path d="M0 21.12C0 11.1639 0 6.18591 3.09295 3.09295C6.18591 0 11.1639 0 21.12 0H22.88C32.8361 0 37.8141 0 40.9071 3.09295C44 6.18591 44 11.1639 44 21.12V22.88C44 32.8361 44 37.8141 40.9071 40.9071C37.8141 44 32.8361 44 22.88 44H21.12C11.1639 44 6.18591 44 3.09295 40.9071C0 37.8141 0 32.8361 0 22.88V21.12Z" fill="#0077FF"/>
<path d="M23.4119 31.6984C13.3835 31.6984 7.66363 24.8234 7.42529 13.3834H12.4486C12.6136 21.7801 16.3169 25.3368 19.2502 26.0701V13.3834H23.9804V20.6251C26.8771 20.3134 29.92 17.0134 30.9467 13.3834H35.6768C34.8884 17.8568 31.5884 21.1568 29.2418 22.5134C31.5884 23.6134 35.347 26.4918 36.777 31.6984H31.5701C30.4518 28.2151 27.6654 25.5201 23.9804 25.1534V31.6984H23.4119Z" fill="white"/>
</svg>
