<svg width="44" height="44" viewBox="0 0 44 44" fill="none" xmlns="http://www.w3.org/2000/svg">
<path d="M43.1704 20.0402L23.9584 0.829843C22.853 -0.276614 21.0587 -0.276614 19.9519 0.829843L15.9628 4.81954L21.0229 9.87986C22.1992 9.48267 23.5476 9.74898 24.4848 10.6865C25.4269 11.6298 25.6913 12.9897 25.2842 14.17L30.1612 19.0473C31.3411 18.6406 32.7025 18.9033 33.6446 19.8472C34.9619 21.1641 34.9619 23.2979 33.6446 24.6151C32.3272 25.9328 30.1935 25.9328 28.8753 24.6151C27.8849 23.6239 27.6399 22.1686 28.1416 20.9483L23.5932 16.3997L23.5928 28.3692C23.914 28.5282 24.217 28.7403 24.4846 29.0068C25.8014 30.3235 25.8014 32.457 24.4846 33.7759C23.1674 35.0926 21.0327 35.0926 19.7169 33.7759C18.3998 32.4571 18.3998 30.3236 19.7169 29.0068C20.0423 28.6819 20.419 28.436 20.8208 28.2711V16.1904C20.4188 16.0262 20.0426 15.7821 19.7166 15.4546C18.7191 14.4578 18.4788 12.9936 18.9904 11.7685L14.0021 6.77929L0.83007 19.9515C-0.27669 21.0588 -0.27669 22.8532 0.83007 23.9597L20.0409 43.1702C21.1469 44.2766 22.9406 44.2766 24.0482 43.1702L43.1702 24.0505C44.2766 22.9435 44.2766 21.1485 43.1702 20.0419" fill="#F05133"/>
</svg>
