<svg width="44" height="44" viewBox="0 0 44 44" fill="none" xmlns="http://www.w3.org/2000/svg">
<g clip-path="url(#clip0_2115_51047)">
<path d="M7.79167 0H36.2083C40.5167 0 44 3.57265 44 7.99145V36.0085C44 40.4274 40.5167 44 36.2083 44H7.79167C3.48333 44 0 40.4274 0 36.0085V7.99145C0 3.57265 3.48333 0 7.79167 0Z" fill="#330000"/>
<path d="M21.3219 26.4H14.5019L13.1085 30.8188C13.0719 30.988 12.9252 31.1009 12.7602 31.082H9.31355C9.11188 31.082 9.05688 30.9692 9.11188 30.7436L15.0152 13.3128C15.0702 13.1248 15.1252 12.9179 15.1985 12.6923C15.2719 12.2974 15.3085 11.8838 15.3085 11.4701C15.2902 11.3761 15.3635 11.282 15.4552 11.2632C15.4735 11.2632 15.4919 11.2632 15.5102 11.2632H20.2035C20.3502 11.2632 20.4235 11.3197 20.4419 11.4137L27.1335 30.7812C27.1885 30.988 27.1335 31.082 26.9502 31.082H23.1185C22.9902 31.1009 22.8619 31.0068 22.8252 30.8752L21.3219 26.4ZM15.5652 22.5829H20.2219C20.1119 22.188 19.9652 21.7179 19.8002 21.2291C19.6352 20.7214 19.4702 20.1761 19.3052 19.612C19.1219 19.0291 18.9569 18.465 18.7735 17.882C18.5902 17.2991 18.4252 16.7538 18.2785 16.2085C18.1319 15.682 18.0035 15.1932 17.8752 14.7419H17.8385C17.6735 15.5504 17.4719 16.359 17.2152 17.1675C16.9402 18.0701 16.6652 19.0103 16.3719 19.9504C16.1152 20.9094 15.8402 21.7932 15.5652 22.5829Z" fill="#FF9A00"/>
<path d="M31.1301 14.4786C30.5251 14.4974 29.9384 14.253 29.4984 13.8205C29.0767 13.3504 28.8567 12.7299 28.8751 12.0906C28.8567 11.4513 29.0951 10.8496 29.5351 10.4171C29.9751 9.98461 30.5617 9.75897 31.1667 9.75897C31.8817 9.75897 32.4318 9.98461 32.8351 10.4171C33.2384 10.8684 33.4584 11.4701 33.4401 12.0906C33.4584 12.7299 33.2384 13.3504 32.7984 13.8205C32.3767 14.2718 31.7534 14.5162 31.1301 14.4786ZM29.0768 30.8V16.3214C29.0768 16.1333 29.1501 16.0581 29.3151 16.0581H32.9451C33.1101 16.0581 33.1834 16.1521 33.1834 16.3214V30.8C33.1834 31.0068 33.1101 31.1008 32.9451 31.1008H29.3518C29.1684 31.1008 29.0768 30.988 29.0768 30.8Z" fill="#FF9A00"/>
</g>
<defs>
<clipPath id="clip0_2115_51047">
<rect width="44" height="44" fill="white"/>
</clipPath>
</defs>
</svg>
