<svg width="44" height="44" viewBox="0 0 44 44" fill="none" xmlns="http://www.w3.org/2000/svg">
<g clip-path="url(#clip0_2115_50977)">
<path d="M7.79167 0H36.2083C40.5167 0 44 3.57265 44 7.99145V36.0085C44 40.4274 40.5167 44 36.2083 44H7.79167C3.48333 44 0 40.4274 0 36.0085V7.99145C0 3.57265 3.48333 0 7.79167 0Z" fill="#F7DF1E"/>
<path d="M12.7813 36.7421L15.9799 34.8064C16.597 35.9005 17.1583 36.8262 18.5048 36.8262C19.7955 36.8262 20.6092 36.3213 20.6092 34.3575V21.0023H24.537V34.413C24.537 38.4813 22.1523 40.333 18.6732 40.333C15.531 40.333 13.7071 38.7056 12.7812 36.7418" fill="black"/>
<path d="M26.6705 36.3212L29.8687 34.4695C30.7106 35.8444 31.8048 36.8544 33.7406 36.8544C35.3681 36.8544 36.4059 36.0406 36.4059 34.9184C36.4059 33.5716 35.3398 33.0946 33.5442 32.3093L32.5625 31.8881C29.7286 30.6819 27.8487 29.1669 27.8487 25.9684C27.8487 23.0224 30.0932 20.7778 33.6004 20.7778C36.0975 20.7778 37.8931 21.6476 39.1836 23.9202L36.1254 25.8841C35.452 24.6778 34.7227 24.2009 33.6005 24.2009C32.4501 24.2009 31.7206 24.9303 31.7206 25.8841C31.7206 27.0625 32.4501 27.5396 34.1334 28.2691L35.1153 28.6899C38.4541 30.1209 40.3339 31.5797 40.3339 34.8622C40.3339 38.3976 37.5563 40.3333 33.8249 40.3333C30.1775 40.3333 27.8206 38.5939 26.6705 36.3212Z" fill="black"/>
</g>
<defs>
<clipPath id="clip0_2115_50977">
<rect width="44" height="44" fill="white"/>
</clipPath>
</defs>
</svg>
