<svg width="44" height="44" viewBox="0 0 44 44" fill="none" xmlns="http://www.w3.org/2000/svg">
<path d="M22.0001 25.9722C24.1939 25.9722 25.9723 24.1938 25.9723 22C25.9723 19.8062 24.1939 18.0278 22.0001 18.0278C19.8063 18.0278 18.0278 19.8062 18.0278 22C18.0278 24.1938 19.8063 25.9722 22.0001 25.9722Z" fill="#61DAFB"/>
<path fill-rule="evenodd" clip-rule="evenodd" d="M17.9986 15.1359C17.2688 16.2066 16.5557 17.3397 15.87 18.5274C15.1843 19.715 14.5595 20.8991 13.9973 22.0665C14.5595 23.2339 15.1843 24.4179 15.87 25.6056C16.5557 26.7932 17.2688 27.9264 17.9986 28.997C19.2908 29.0938 20.6286 29.1447 22 29.1447C23.3714 29.1447 24.7092 29.0938 26.0014 28.997C26.7312 27.9264 27.4443 26.7932 28.13 25.6056C28.8156 24.4179 29.4404 23.2339 30.0027 22.0665C29.4404 20.8991 28.8156 19.715 28.13 18.5274C27.4443 17.3397 26.7312 16.2066 26.0014 15.1359C24.7092 15.0392 23.3714 14.9883 22 14.9883C20.6286 14.9883 19.2908 15.0392 17.9986 15.1359ZM15.5447 15.3807C15.091 16.0899 14.6464 16.8207 14.2133 17.5708C13.7802 18.321 13.3696 19.0714 12.9823 19.819C12.4381 18.5275 11.9754 17.2682 11.5967 16.0602C12.8323 15.7841 14.1542 15.5552 15.5447 15.3807ZM19.4375 13.1332C20.2786 13.0949 21.1338 13.0752 22 13.0752C22.8662 13.0752 23.7214 13.0949 24.5624 13.1332C23.7161 12.0162 22.8569 10.9859 22 10.0538C21.1431 10.9859 20.2839 12.0162 19.4375 13.1332ZM20.6653 8.6792C19.4056 10.0418 18.151 11.5952 16.9414 13.3047C14.856 13.4975 12.8834 13.8074 11.0735 14.217C10.8673 13.4015 10.7039 12.6168 10.5842 11.8695C10.2726 9.92452 10.2653 8.28524 10.532 7.03833C10.7987 5.79129 11.3118 5.04296 11.9565 4.67075C12.6012 4.29854 13.5058 4.22834 14.7192 4.62086C15.9324 5.01334 17.3484 5.83932 18.877 7.08167C19.4643 7.55899 20.0622 8.09287 20.6653 8.6792ZM23.3346 8.6792C24.5944 10.0418 25.849 11.5952 27.0586 13.3047C29.144 13.4975 31.1166 13.8073 32.9265 14.217C33.1327 13.4015 33.2961 12.6168 33.4158 11.8695C33.7274 9.92452 33.7347 8.28524 33.468 7.03833C33.2013 5.79129 32.6882 5.04296 32.0435 4.67075C31.3988 4.29854 30.4941 4.22834 29.2808 4.62086C28.0676 5.01334 26.6516 5.83932 25.123 7.08167C24.5357 7.55899 23.9378 8.09287 23.3346 8.6792ZM34.7807 14.6876C35.0006 13.8182 35.1757 12.9775 35.3047 12.1721C35.638 10.0922 35.6721 8.19694 35.3387 6.6382C35.0054 5.07959 34.2768 3.75117 33 3.01401C31.7232 2.27685 30.2085 2.31011 28.692 2.8007C27.1754 3.29133 25.5511 4.26854 23.9164 5.5971C23.2835 6.11151 22.6429 6.68357 22 7.30866C21.3571 6.68357 20.7165 6.11151 20.0836 5.5971C18.4489 4.26854 16.8246 3.29133 15.308 2.8007C13.7915 2.31011 12.2768 2.27685 11 3.01401C9.7232 3.75117 8.99463 5.07959 8.66125 6.6382C8.32785 8.19694 8.36201 10.0922 8.69525 12.1721C8.82428 12.9775 8.99941 13.8182 9.21929 14.6876C8.35648 14.9318 7.54077 15.2005 6.77882 15.4915C4.81091 16.2428 3.15249 17.1609 1.96928 18.229C0.78617 19.297 0 20.5922 0 22.0665C0 23.5408 0.78617 24.836 1.96928 25.904C3.15249 26.9721 4.81091 27.8901 6.77882 28.6415C7.54077 28.9324 8.35648 29.2011 9.21929 29.4454C8.99941 30.3147 8.82428 31.1555 8.69525 31.9608C8.36201 34.0408 8.32785 35.936 8.66125 37.4948C8.99463 39.0534 9.7232 40.3818 11 41.1189C12.2768 41.8561 13.7915 41.8228 15.308 41.3323C16.8246 40.8416 18.4489 39.8644 20.0836 38.5359C20.7165 38.0214 21.3571 37.4494 22 36.8243C22.6429 37.4494 23.2835 38.0214 23.9164 38.5359C25.5511 39.8644 27.1754 40.8416 28.692 41.3323C30.2085 41.8228 31.7232 41.8561 33 41.1189C34.2768 40.3818 35.0054 39.0534 35.3387 37.4948C35.6721 35.936 35.638 34.0408 35.3047 31.9608C35.1757 31.1555 35.0006 30.3147 34.7807 29.4454C35.6435 29.2011 36.4592 28.9324 37.2212 28.6415C39.1891 27.8901 40.8475 26.9721 42.0307 25.904C43.2138 24.836 44 23.5408 44 22.0665C44 20.5922 43.2138 19.297 42.0307 18.229C40.8475 17.1609 39.1891 16.2428 37.2212 15.4915C36.4592 15.2005 35.6435 14.9318 34.7807 14.6876ZM32.4033 16.0602C31.1677 15.7841 29.8458 15.5552 28.4553 15.3807C28.909 16.0899 29.3536 16.8207 29.7867 17.5708C30.2198 18.321 30.6304 19.0714 31.0177 19.819C31.5619 18.5275 32.0245 17.2682 32.4033 16.0602ZM32.1172 22.0665C32.9929 20.1641 33.7109 18.3009 34.2611 16.5287C35.0704 16.7578 35.8318 17.0087 36.5388 17.2787C38.379 17.9813 39.8023 18.7946 40.7488 19.649C41.6954 20.5035 42.087 21.3221 42.087 22.0665C42.087 22.8109 41.6954 23.6294 40.7488 24.4839C39.8023 25.3384 38.379 26.1517 36.5388 26.8543C35.8318 27.1243 35.0704 27.3751 34.2611 27.6043C33.7109 25.8321 32.9929 23.9688 32.1172 22.0665ZM31.0177 24.314C30.6304 25.0615 30.2198 25.8119 29.7867 26.5621C29.3536 27.3123 28.909 28.043 28.4553 28.7523C29.8458 28.5778 31.1677 28.3488 32.4033 28.0728C32.0245 26.8647 31.5619 25.6055 31.0177 24.314ZM32.9265 29.916C31.1166 30.3256 29.144 30.6354 27.0586 30.8282C25.849 32.5378 24.5944 34.0912 23.3347 35.4538C23.9378 36.0401 24.5357 36.574 25.123 37.0513C26.6516 38.2936 28.0676 39.1196 29.2808 39.5121C30.4941 39.9046 31.3988 39.8344 32.0435 39.4622C32.6882 39.09 33.2013 38.3417 33.468 37.0946C33.7347 35.8477 33.7274 34.2084 33.4158 32.2635C33.2961 31.5162 33.1327 30.7314 32.9265 29.916ZM22 34.0791C22.8569 33.1471 23.7161 32.1168 24.5624 30.9998C23.7214 31.0381 22.8662 31.0577 22 31.0577C21.1338 31.0577 20.2786 31.0381 19.4375 30.9998C20.2839 32.1168 21.1431 33.1471 22 34.0791ZM15.5447 28.7523C15.091 28.043 14.6464 27.3123 14.2133 26.5621C13.7802 25.8119 13.3696 25.0615 12.9823 24.314C12.4381 25.6055 11.9754 26.8647 11.5967 28.0728C12.8323 28.3488 14.1542 28.5778 15.5447 28.7523ZM11.0735 29.916C12.8834 30.3256 14.856 30.6354 16.9414 30.8282C18.151 32.5378 19.4056 34.0912 20.6653 35.4538C20.0622 36.0401 19.4643 36.574 18.877 37.0513C17.3484 38.2936 15.9324 39.1196 14.7192 39.5121C13.5058 39.9046 12.6012 39.8344 11.9565 39.4622C11.3118 39.09 10.7987 38.3417 10.532 37.0946C10.2653 35.8477 10.2726 34.2084 10.5842 32.2635C10.7039 31.5162 10.8673 30.7314 11.0735 29.916ZM9.73889 27.6043C8.92955 27.3751 8.16823 27.1243 7.4612 26.8543C5.62099 26.1517 4.19767 25.3384 3.25116 24.4839C2.30455 23.6294 1.91304 22.8109 1.91304 22.0665C1.91304 21.3221 2.30455 20.5035 3.25116 19.649C4.19767 18.7946 5.62099 17.9813 7.4612 17.2787C8.16823 17.0087 8.92955 16.7578 9.73889 16.5287C10.2891 18.3009 11.0071 20.1641 11.8828 22.0665C11.0071 23.9688 10.2891 25.8321 9.73889 27.6043Z" fill="#61DAFB"/>
</svg>
