<svg width="44" height="44" viewBox="0 0 44 44" fill="none" xmlns="http://www.w3.org/2000/svg">
<path d="M22 44C34.1503 44 44 34.1503 44 22C44 9.84974 34.1503 0 22 0C9.84974 0 0 9.84974 0 22C0 34.1503 9.84974 44 22 44Z" fill="url(#paint0_linear_2114_50854)"/>
<path fill-rule="evenodd" clip-rule="evenodd" d="M9.95837 21.7678C16.3718 18.9735 20.6485 17.1314 22.7883 16.2414C28.8979 13.7002 30.1674 13.2587 30.9949 13.2442C31.1769 13.241 31.5838 13.2861 31.8474 13.4999C32.07 13.6805 32.1312 13.9245 32.1605 14.0957C32.1898 14.267 32.2263 14.657 32.1973 14.9618C31.8662 18.4405 30.4336 26.8824 29.7048 30.7787C29.3964 32.4273 28.7892 32.9801 28.2013 33.0342C26.9237 33.1518 25.9536 32.1899 24.7162 31.3787C22.7799 30.1095 21.686 29.3194 19.8065 28.0808C17.6344 26.6494 19.0425 25.8627 20.2804 24.577C20.6043 24.2405 26.2334 19.1205 26.3423 18.656C26.356 18.5979 26.3686 18.3814 26.24 18.2671C26.1113 18.1527 25.9215 18.1918 25.7845 18.2229C25.5903 18.267 22.497 20.3115 16.5047 24.3565C15.6267 24.9594 14.8315 25.2531 14.1189 25.2377C13.3334 25.2208 11.8224 24.7936 10.6991 24.4285C9.32136 23.9806 8.22636 23.7438 8.32171 22.9832C8.37137 22.5871 8.91692 22.1819 9.95837 21.7678Z" fill="white"/>
<defs>
<linearGradient id="paint0_linear_2114_50854" x1="22" y1="0" x2="22" y2="43.6737" gradientUnits="userSpaceOnUse">
<stop stop-color="#2AABEE"/>
<stop offset="1" stop-color="#229ED9"/>
</linearGradient>
</defs>
</svg>
