<svg width="48" height="48" viewBox="0 0 48 48" fill="none" xmlns="http://www.w3.org/2000/svg">
<path d="M4 23.2C4 14.149 4 9.62355 6.81177 6.81177C9.62355 4 14.149 4 23.2 4H24.8C33.851 4 38.3764 4 41.1882 6.81177C44 9.62355 44 14.149 44 23.2V24.8C44 33.851 44 38.3764 41.1882 41.1882C38.3764 44 33.851 44 24.8 44H23.2C14.149 44 9.62355 44 6.81177 41.1882C4 38.3764 4 33.851 4 24.8V23.2Z" fill="#0077FF"/>
<path d="M25.2833 32.8168C16.1666 32.8168 10.9667 26.5667 10.75 16.1667H15.3167C15.4667 23.8001 18.8333 27.0334 21.4999 27.7001V16.1667H25.8001V22.7501C28.4334 22.4667 31.1997 19.4667 32.1331 16.1667H36.4332C35.7165 20.2334 32.7165 23.2334 30.5832 24.4667C32.7165 25.4667 36.1333 28.0834 37.4333 32.8168H32.6998C31.6832 29.6501 29.1501 27.2001 25.8001 26.8667V32.8168H25.2833Z" fill="white"/>
</svg>
