<svg width="44" height="44" viewBox="0 0 44 44" fill="none" xmlns="http://www.w3.org/2000/svg">
<mask id="mask0_2115_51018" style="mask-type:alpha" maskUnits="userSpaceOnUse" x="0" y="0" width="44" height="44">
<path fill-rule="evenodd" clip-rule="evenodd" d="M31.2012 43.6995C31.8942 43.9695 32.6844 43.9522 33.3839 43.6156L42.4428 39.2567C43.3946 38.7986 44 37.8352 44 36.7784V7.22185C44 6.16497 43.3947 5.20159 42.4428 4.74355L33.3839 0.384452C32.4659 -0.0572571 31.3916 0.0509341 30.5859 0.636658C30.4709 0.720328 30.3612 0.813749 30.2584 0.9167L12.9162 16.7383L5.36237 11.0042C4.65916 10.4705 3.6756 10.5142 3.02251 11.1083L0.599733 13.3122C-0.199123 14.0388 -0.200038 15.2956 0.597753 16.0235L7.14872 22L0.597753 27.9766C-0.200038 28.7045 -0.199123 29.9613 0.599733 30.6879L3.02251 32.8918C3.6756 33.4859 4.65916 33.5296 5.36237 32.9958L12.9162 27.2618L30.2584 43.0833C30.5327 43.3579 30.8548 43.5646 31.2012 43.6995ZM33.0067 12.0115L19.848 22L33.0067 31.9885V12.0115Z" fill="white"/>
</mask>
<g mask="url(#mask0_2115_51018)">
<path d="M42.4429 4.75033L33.3769 0.385242C32.3275 -0.120016 31.0734 0.0931126 30.2499 0.916669L0.571263 27.9766C-0.227017 28.7044 -0.226099 29.9612 0.573243 30.6879L2.99748 32.8918C3.65098 33.4859 4.63516 33.5296 5.33876 32.9958L41.0787 5.88276C42.2777 4.97315 43.9999 5.82833 43.9999 7.33335V7.2281C43.9999 6.17166 43.3947 5.20864 42.4429 4.75033Z" fill="#0065A9"/>
<g filter="url(#filter0_d_2115_51018)">
<path d="M42.4429 39.2497L33.3769 43.6148C32.3275 44.1201 31.0734 43.9069 30.2499 43.0834L0.571263 16.0235C-0.227017 15.2956 -0.226099 14.0388 0.573243 13.3121L2.99748 11.1083C3.65098 10.5142 4.63516 10.4704 5.33876 11.0042L41.0787 38.1173C42.2777 39.0269 43.9999 38.1717 43.9999 36.6667V36.772C43.9999 37.8284 43.3947 38.7914 42.4429 39.2497Z" fill="#007ACC"/>
</g>
<g filter="url(#filter1_d_2115_51018)">
<path d="M33.3774 43.6156C32.3277 44.1205 31.0736 43.9069 30.25 43.0833C31.2648 44.0981 33 43.3794 33 41.9442V2.05573C33 0.620565 31.2648 -0.0981738 30.25 0.91664C31.0736 0.0930097 32.3277 -0.12042 33.3774 0.384391L42.4418 4.7435C43.3943 5.20154 44 6.16492 44 7.2218V36.7783C44 37.8352 43.3943 38.7986 42.4418 39.2566L33.3774 43.6156Z" fill="#1F9CF0"/>
</g>
<g style="mix-blend-mode:overlay" opacity="0.25">
<path fill-rule="evenodd" clip-rule="evenodd" d="M31.1744 43.6996C31.8674 43.9695 32.6576 43.9522 33.357 43.6156L42.4159 39.2567C43.3678 38.7987 43.9731 37.8353 43.9731 36.7783V7.22188C43.9731 6.16495 43.3678 5.20157 42.4159 4.74353L33.357 0.384453C32.4391 -0.0572568 31.3648 0.0509344 30.5591 0.636654C30.444 0.720329 30.3344 0.81375 30.2315 0.916701L12.8894 16.7382L5.3355 11.0043C4.63234 10.4704 3.64874 10.5142 2.99565 11.1083L0.572879 13.3121C-0.225978 14.0388 -0.226894 15.2956 0.570899 16.0235L7.12186 22L0.570899 27.9766C-0.226894 28.7045 -0.225978 29.9613 0.572879 30.6879L2.99565 32.8918C3.64874 33.4859 4.63234 33.5296 5.3355 32.9958L12.8894 27.2618L30.2315 43.0834C30.5058 43.3578 30.828 43.5646 31.1744 43.6996ZM32.9798 12.0115L19.8211 22L32.9798 31.9886V12.0115Z" fill="url(#paint0_linear_2115_51018)"/>
</g>
</g>
<defs>
<filter id="filter0_d_2115_51018" x="-2.57315" y="8.08517" width="49.1195" height="38.3474" filterUnits="userSpaceOnUse" color-interpolation-filters="sRGB">
<feFlood flood-opacity="0" result="BackgroundImageFix"/>
<feColorMatrix in="SourceAlpha" type="matrix" values="0 0 0 0 0 0 0 0 0 0 0 0 0 0 0 0 0 0 127 0" result="hardAlpha"/>
<feOffset/>
<feGaussianBlur stdDeviation="1.27315"/>
<feColorMatrix type="matrix" values="0 0 0 0 0 0 0 0 0 0 0 0 0 0 0 0 0 0 0.25 0"/>
<feBlend mode="overlay" in2="BackgroundImageFix" result="effect1_dropShadow_2115_51018"/>
<feBlend mode="normal" in="SourceGraphic" in2="effect1_dropShadow_2115_51018" result="shape"/>
</filter>
<filter id="filter1_d_2115_51018" x="27.7037" y="-2.43289" width="18.8426" height="48.8658" filterUnits="userSpaceOnUse" color-interpolation-filters="sRGB">
<feFlood flood-opacity="0" result="BackgroundImageFix"/>
<feColorMatrix in="SourceAlpha" type="matrix" values="0 0 0 0 0 0 0 0 0 0 0 0 0 0 0 0 0 0 127 0" result="hardAlpha"/>
<feOffset/>
<feGaussianBlur stdDeviation="1.27315"/>
<feColorMatrix type="matrix" values="0 0 0 0 0 0 0 0 0 0 0 0 0 0 0 0 0 0 0.25 0"/>
<feBlend mode="overlay" in2="BackgroundImageFix" result="effect1_dropShadow_2115_51018"/>
<feBlend mode="normal" in="SourceGraphic" in2="effect1_dropShadow_2115_51018" result="shape"/>
</filter>
<linearGradient id="paint0_linear_2115_51018" x1="21.9731" y1="0.113464" x2="21.9731" y2="43.8866" gradientUnits="userSpaceOnUse">
<stop stop-color="white"/>
<stop offset="1" stop-color="white" stop-opacity="0"/>
</linearGradient>
</defs>
</svg>
